<svg xmlns="http://www.w3.org/2000/svg" style="display:none">
  <!-- סט אייקונים מקורי של הקליניקה: קו 1.6, קצוות מעוגלים. שימוש: <svg class="ico"><use href="images/icons/icons.svg#face"/></svg> -->
  <symbol id="face" viewBox="0 0 24 24" fill="none" stroke="currentColor" stroke-width="1.6" stroke-linecap="round" stroke-linejoin="round"><path d="M6 10.5c0-4 2.7-7 6-7s6 3 6 7c0 3.5-2.2 6.5-4.5 8h-3C8.2 17 6 14 6 10.5z"/><path d="M9 11h.01M15 11h.01M10.5 14.5c.9.6 2.1.6 3 0"/><path d="M6 10.5c-1 0-1.8.8-1.8 1.8S5 14 6 14M18 10.5c1 0 1.8.8 1.8 1.8S19 14 18 14"/></symbol>
  <symbol id="laser" viewBox="0 0 24 24" fill="none" stroke="currentColor" stroke-width="1.6" stroke-linecap="round" stroke-linejoin="round"><path d="M9 3h6l1 6H8z"/><path d="M8 9l-2 4h12l-2-4"/><path d="M12 13v3M9.5 19.5 12 16l2.5 3.5M7 21l5-5 5 5"/></symbol>
  <symbol id="foot" viewBox="0 0 24 24" fill="none" stroke="currentColor" stroke-width="1.6" stroke-linecap="round" stroke-linejoin="round"><path d="M9 21c-2.5 0-4-1.5-4-3.5 0-2.5 1.8-3.3 2.6-5.5C8.4 9.6 8 5 11.2 3.6 14.4 2.2 16 5.4 16 8.5c0 3.5-2 5-2 8.5 0 2.5-2 4-5 4z"/><path d="M18 5.5v.01M19.8 8.3v.01M20 11.5v.01"/></symbol>
  <symbol id="sparkle" viewBox="0 0 24 24" fill="none" stroke="currentColor" stroke-width="1.6" stroke-linecap="round" stroke-linejoin="round"><path d="M12 3l1.8 5.2L19 10l-5.2 1.8L12 17l-1.8-5.2L5 10l5.2-1.8z"/><path d="M19 16l.7 2 2 .7-2 .7-.7 2-.7-2-2-.7 2-.7zM5 3l.5 1.5L7 5l-1.5.5L5 7l-.5-1.5L3 5l1.5-.5z"/></symbol>
  <symbol id="leaf" viewBox="0 0 24 24" fill="none" stroke="currentColor" stroke-width="1.6" stroke-linecap="round" stroke-linejoin="round"><path d="M5 19C5 9 11 4 20 4c0 9-5 15-15 15z"/><path d="M5 19c3-4 6-7 10-10"/></symbol>
  <symbol id="drop" viewBox="0 0 24 24" fill="none" stroke="currentColor" stroke-width="1.6" stroke-linecap="round" stroke-linejoin="round"><path d="M12 3s6 6.5 6 11a6 6 0 0 1-12 0c0-4.5 6-11 6-11z"/><path d="M9 14.5a3 3 0 0 0 2 2.5"/></symbol>
  <symbol id="calendar" viewBox="0 0 24 24" fill="none" stroke="currentColor" stroke-width="1.6" stroke-linecap="round" stroke-linejoin="round"><rect x="3.5" y="5" width="17" height="15.5" rx="3"/><path d="M3.5 10h17M8 3v4M16 3v4"/><path d="M9.5 15l1.8 1.8L15 13"/></symbol>
  <symbol id="clock" viewBox="0 0 24 24" fill="none" stroke="currentColor" stroke-width="1.6" stroke-linecap="round" stroke-linejoin="round"><circle cx="12" cy="12" r="8.5"/><path d="M12 7.5V12l3 2"/></symbol>
  <symbol id="phone" viewBox="0 0 24 24" fill="none" stroke="currentColor" stroke-width="1.6" stroke-linecap="round" stroke-linejoin="round"><path d="M20.5 16.5v2.6a1.9 1.9 0 0 1-2.1 1.9 18.7 18.7 0 0 1-8.2-2.9 18.4 18.4 0 0 1-5.7-5.7A18.7 18.7 0 0 1 1.6 4.1 1.9 1.9 0 0 1 3.5 2h2.6a1.9 1.9 0 0 1 1.9 1.6c.1.9.3 1.7.6 2.5a1.9 1.9 0 0 1-.4 2L7.1 9.2a15 15 0 0 0 5.7 5.7l1.1-1.1a1.9 1.9 0 0 1 2-.4c.8.3 1.6.5 2.5.6a1.9 1.9 0 0 1 1.6 2z"/></symbol>
  <symbol id="whatsapp" viewBox="0 0 24 24" fill="none" stroke="currentColor" stroke-width="1.6" stroke-linecap="round" stroke-linejoin="round"><path d="M12 3.5a8.5 8.5 0 0 0-7.3 12.8L3.5 20.5l4.3-1.1A8.5 8.5 0 1 0 12 3.5z"/><path d="M9.2 8.6c.2-.4.5-.4.8-.4h.4l.7 1.7-.6.8c.5 1 1.4 1.9 2.4 2.4l.8-.6 1.7.7v.5c0 .3 0 .6-.4.8-.6.3-1.3.4-2.2 0a8.3 8.3 0 0 1-3.9-3.9c-.4-.9-.3-1.6 0-2.2z"/></symbol>
  <symbol id="location" viewBox="0 0 24 24" fill="none" stroke="currentColor" stroke-width="1.6" stroke-linecap="round" stroke-linejoin="round"><path d="M19.5 10c0 6-7.5 11-7.5 11S4.5 16 4.5 10a7.5 7.5 0 0 1 15 0z"/><circle cx="12" cy="10" r="2.6"/></symbol>
  <symbol id="instagram" viewBox="0 0 24 24" fill="none" stroke="currentColor" stroke-width="1.6" stroke-linecap="round" stroke-linejoin="round"><rect x="3.5" y="3.5" width="17" height="17" rx="5"/><circle cx="12" cy="12" r="3.8"/><circle cx="17" cy="7" r=".8" fill="currentColor"/></symbol>
  <symbol id="truck" viewBox="0 0 24 24" fill="none" stroke="currentColor" stroke-width="1.6" stroke-linecap="round" stroke-linejoin="round"><path d="M3 7h11v10H3zM14 10h4l3 3v4h-7z"/><circle cx="7" cy="18" r="1.6"/><circle cx="17" cy="18" r="1.6"/></symbol>
  <symbol id="shield" viewBox="0 0 24 24" fill="none" stroke="currentColor" stroke-width="1.6" stroke-linecap="round" stroke-linejoin="round"><path d="M12 3l7 3v5.5c0 4.5-3 8-7 9.5-4-1.5-7-5-7-9.5V6z"/><path d="M9.5 12l1.8 1.8L15 10.5"/></symbol>
  <symbol id="heart" viewBox="0 0 24 24" fill="none" stroke="currentColor" stroke-width="1.6" stroke-linecap="round" stroke-linejoin="round"><path d="M12 20s-7.5-4.6-7.5-10A4 4 0 0 1 12 7.6 4 4 0 0 1 19.5 10c0 5.4-7.5 10-7.5 10z"/></symbol>
  <symbol id="star" viewBox="0 0 24 24" fill="none" stroke="currentColor" stroke-width="1.6" stroke-linecap="round" stroke-linejoin="round"><path d="M12 3.5l2.6 5.3 5.9.9-4.3 4.1 1 5.8L12 16.9l-5.2 2.7 1-5.8-4.3-4.1 5.9-.9z"/></symbol>
  <symbol id="check" viewBox="0 0 24 24" fill="none" stroke="currentColor" stroke-width="1.6" stroke-linecap="round" stroke-linejoin="round"><path d="M20 7 9 18l-5-5"/></symbol>
  <symbol id="arrow" viewBox="0 0 24 24" fill="none" stroke="currentColor" stroke-width="1.6" stroke-linecap="round" stroke-linejoin="round"><path d="M19 12H5M12 19l-7-7 7-7"/></symbol>
  <symbol id="bag" viewBox="0 0 24 24" fill="none" stroke="currentColor" stroke-width="1.6" stroke-linecap="round" stroke-linejoin="round"><path d="M5 8h14l-1 12H6z"/><path d="M9 8V6a3 3 0 0 1 6 0v2"/></symbol>
  <symbol id="tag" viewBox="0 0 24 24" fill="none" stroke="currentColor" stroke-width="1.6" stroke-linecap="round" stroke-linejoin="round"><path d="M3.5 12.5V4.5h8l9 9-8 8z"/><circle cx="8" cy="9" r="1.3"/></symbol>
  <symbol id="mask" viewBox="0 0 24 24" fill="none" stroke="currentColor" stroke-width="1.6" stroke-linecap="round" stroke-linejoin="round"><path d="M4 6c2.5-1 5.5-1.5 8-1.5S17.5 5 20 6v5c0 5-3.5 9.5-8 10.5C7.5 20.5 4 16 4 11z"/><path d="M8.5 11h2M13.5 11h2M9.5 15c1.5 1 3.5 1 5 0"/></symbol>
  <symbol id="sun" viewBox="0 0 24 24" fill="none" stroke="currentColor" stroke-width="1.6" stroke-linecap="round" stroke-linejoin="round"><circle cx="12" cy="12" r="4"/><path d="M12 3v2M12 19v2M3 12h2M19 12h2M5.6 5.6l1.4 1.4M17 17l1.4 1.4M5.6 18.4 7 17M17 7l1.4-1.4"/></symbol>
  <symbol id="eye" viewBox="0 0 24 24" fill="none" stroke="currentColor" stroke-width="1.6" stroke-linecap="round" stroke-linejoin="round"><path d="M2.5 12S6 5.5 12 5.5 21.5 12 21.5 12 18 18.5 12 18.5 2.5 12 2.5 12z"/><circle cx="12" cy="12" r="3"/></symbol>
</svg>
